<svg id="Layer_1" data-name="Layer 1" xmlns="http://www.w3.org/2000/svg" xmlns:xlink="http://www.w3.org/1999/xlink" viewBox="0 0 512 128"><defs><style>.cls-1{fill:#fff;}.cls-2{fill:#0071bc;stroke-width:0.13px;}.cls-2,.cls-3,.cls-4,.cls-5{stroke:#fff;stroke-miterlimit:10;}.cls-3{fill:#f7931e;stroke-width:0.1px;}.cls-4{fill:#fcee21;stroke-width:0.08px;}.cls-5{fill:#009245;stroke-width:0.21px;}.cls-6{fill:url(#Sky);}.cls-7{fill:url(#New_Gradient_Swatch_2);}.cls-8{fill:url(#New_Gradient_Swatch_2-2);}.cls-9{fill:url(#Sky-2);}.cls-10{fill:url(#Sky-3);}.cls-11{fill:url(#New_Gradient_Swatch_2-3);}.cls-12{fill:url(#New_Gradient_Swatch_2-4);}.cls-13{fill:url(#Sky-4);}.cls-14{fill:url(#Sky-5);}.cls-15{fill:url(#Sky-6);}.cls-16{fill:url(#New_Gradient_Swatch_2-5);}.cls-17{fill:url(#New_Gradient_Swatch_2-6);}.cls-18{fill:url(#Sky-7);}.cls-19{fill:url(#Sky-8);}.cls-20{fill:url(#Sky-9);}.cls-21{fill:url(#Sky-10);}.cls-22{fill:url(#Sky-11);}.cls-23{fill:url(#Sky-12);}.cls-24{fill:url(#Sky-13);}.cls-25{fill:url(#New_Gradient_Swatch_2-7);}.cls-26{fill:url(#New_Gradient_Swatch_2-8);}.cls-27{fill:url(#New_Gradient_Swatch_2-9);}.cls-28{fill:url(#Sky-14);}.cls-29{fill:url(#Sky-15);}.cls-30{fill:url(#New_Gradient_Swatch_2-10);}.cls-31{fill:url(#New_Gradient_Swatch_2-11);}.cls-32{fill:lime;}.cls-33{font-size:9px;font-family:MyriadPro-Regular, Myriad Pro;}.cls-34{letter-spacing:-0.04em;}.cls-35{letter-spacing:-0.01em;}.cls-36{letter-spacing:0em;}.cls-37{letter-spacing:-0.01em;}</style><linearGradient id="Sky" x1="32.23" y1="13.5" x2="139.77" y2="13.5" gradientUnits="userSpaceOnUse"><stop offset="0" stop-color="#cce0f4"/><stop offset="0.06" stop-color="#c3dcf2"/><stop offset="0.17" stop-color="#a9d2ee"/><stop offset="0.31" stop-color="#80c2e7"/><stop offset="0.46" stop-color="#47acde"/><stop offset="0.57" stop-color="#1e9cd7"/><stop offset="0.87" stop-color="#0075be"/><stop offset="0.99" stop-color="#005b97"/></linearGradient><linearGradient id="New_Gradient_Swatch_2" x1="139.22" y1="13.5" x2="240.78" y2="13.5" gradientUnits="userSpaceOnUse"><stop offset="0" stop-color="#c1ffd0"/><stop offset="0.09" stop-color="#beffcc"/><stop offset="0.17" stop-color="#b3ffc2"/><stop offset="0.25" stop-color="#a1ffb0"/><stop offset="0.33" stop-color="#87ff96"/><stop offset="0.4" stop-color="#67ff75"/><stop offset="0.47" stop-color="#3fff4d"/><stop offset="0.5" stop-color="#2aff38"/><stop offset="0.73" stop-color="#13bf00"/><stop offset="0.77" stop-color="#12b100"/><stop offset="0.84" stop-color="#0e8b00"/><stop offset="0.95" stop-color="#084e00"/><stop offset="1" stop-color="#052a00"/></linearGradient><linearGradient id="New_Gradient_Swatch_2-2" x1="240.27" x2="511.73" xlink:href="#New_Gradient_Swatch_2"/><linearGradient id="Sky-2" x1="52.27" y1="101.07" x2="236.73" y2="101.07" xlink:href="#Sky"/><linearGradient id="Sky-3" x1="35.08" y1="101.07" x2="50.92" y2="101.07" xlink:href="#Sky"/><linearGradient id="New_Gradient_Swatch_2-3" x1="237.27" y1="101.07" x2="416.73" y2="101.07" xlink:href="#New_Gradient_Swatch_2"/><linearGradient id="New_Gradient_Swatch_2-4" x1="417.11" y1="101.07" x2="511.89" y2="101.07" xlink:href="#New_Gradient_Swatch_2"/><linearGradient id="Sky-4" x1="35" y1="83.93" x2="46" y2="83.93" xlink:href="#Sky"/><linearGradient id="Sky-5" x1="46.11" y1="83.96" x2="73.89" y2="83.96" xlink:href="#Sky"/><linearGradient id="Sky-6" x1="74.11" y1="83.96" x2="101.89" y2="83.96" xlink:href="#Sky"/><linearGradient id="New_Gradient_Swatch_2-5" x1="225.23" y1="83.96" x2="358.77" y2="83.96" xlink:href="#New_Gradient_Swatch_2"/><linearGradient id="New_Gradient_Swatch_2-6" x1="359.1" y1="83.96" x2="511.9" y2="83.96" xlink:href="#New_Gradient_Swatch_2"/><linearGradient id="Sky-7" x1="101.11" y1="83.96" x2="128.89" y2="83.96" xlink:href="#Sky"/><linearGradient id="Sky-8" x1="128.2" y1="83.96" x2="224.8" y2="83.96" xlink:href="#Sky"/><linearGradient id="Sky-9" x1="62.1" y1="66.04" x2="88.9" y2="66.04" xlink:href="#Sky"/><linearGradient id="Sky-10" x1="35.1" y1="66.04" x2="61.9" y2="66.04" xlink:href="#Sky"/><linearGradient id="Sky-11" x1="89.1" y1="66.04" x2="115.9" y2="66.04" xlink:href="#Sky"/><linearGradient id="Sky-12" x1="114.1" y1="66.04" x2="140.9" y2="66.04" xlink:href="#Sky"/><linearGradient id="Sky-13" x1="132.17" y1="66.04" x2="201.83" y2="66.04" xlink:href="#Sky"/><linearGradient id="New_Gradient_Swatch_2-7" x1="201.16" y1="66.04" x2="261.84" y2="66.04" xlink:href="#New_Gradient_Swatch_2"/><linearGradient id="New_Gradient_Swatch_2-8" x1="262.16" y1="66.04" x2="322.84" y2="66.04" xlink:href="#New_Gradient_Swatch_2"/><linearGradient id="New_Gradient_Swatch_2-9" x1="323.16" y1="66.04" x2="511.84" y2="66.04" xlink:href="#New_Gradient_Swatch_2"/><linearGradient id="Sky-14" x1="34.09" y1="48.93" x2="52.91" y2="48.93" xlink:href="#Sky"/><linearGradient id="Sky-15" x1="53.26" y1="48.93" x2="219.74" y2="48.93" xlink:href="#Sky"/><linearGradient id="New_Gradient_Swatch_2-10" x1="219.18" y1="48.93" x2="302.82" y2="48.93" xlink:href="#New_Gradient_Swatch_2"/><linearGradient id="New_Gradient_Swatch_2-11" x1="302.18" y1="48.93" x2="511.82" y2="48.93" xlink:href="#New_Gradient_Swatch_2"/></defs><rect x="-543.5" y="-17.5" width="1074" height="311"/><path class="cls-1" d="M530-17V293H-543V-17H530m1-1H-544V294H531V-18Z"/><rect class="cls-2" x="34" y="113" width="105" height="15"/><rect class="cls-3" x="139" y="113" width="61" height="15"/><rect class="cls-4" x="200" y="113" width="37" height="15"/><rect class="cls-5" x="237" y="113" width="275" height="15"/><rect class="cls-6" x="32.23" y="5.23" width="107.54" height="16.54"/><path class="cls-1" d="M139.54,5.46V21.54H32.46V5.46H139.54M140,5H32V22H140V5Z"/><rect class="cls-7" x="139.22" y="5.22" width="101.55" height="16.55"/><path class="cls-1" d="M240.55,5.45v16.1H139.45V5.45h101.1M241,5H139V22H241V5Z"/><rect class="cls-8" x="240.27" y="5.27" width="271.47" height="16.47"/><path class="cls-1" d="M511.47,5.53V21.47H240.53V5.53H511.47M512,5H240V22H512V5Z"/><rect class="cls-9" x="52.27" y="94.42" width="184.46" height="13.31"/><path class="cls-1" d="M236.46,94.69v12.77H52.54V94.69H236.46m.54-.54H52V108H237V94.15Z"/><rect class="cls-10" x="35.08" y="94.23" width="15.84" height="13.69"/><path class="cls-1" d="M50.84,94.31v13.53H35.16V94.31H50.84m.16-.16H35V108H51V94.15Z"/><rect class="cls-11" x="237.27" y="94.42" width="179.46" height="13.32"/><path class="cls-1" d="M416.46,94.68v12.78H237.54V94.68H416.46m.54-.53H237V108H417V94.15Z"/><rect class="cls-12" x="417.11" y="94.26" width="94.78" height="13.63"/><path class="cls-1" d="M511.78,94.37v13.41H417.22V94.37h94.56m.22-.22H417V108h95V94.15Z"/><polygon class="cls-13" points="35 90.82 35.07 77.04 46 77.1 45.93 90.82 35 90.82"/><path class="cls-1" d="M45.87,77.17V90.76H35.13V77.17H45.87M46,77H35V90.89H46V77Z"/><rect class="cls-14" x="46.11" y="77.14" width="27.79" height="13.64"/><path class="cls-1" d="M73.79,77.25V90.68H46.21V77.25H73.79M74,77H46V90.89H74V77Z"/><rect class="cls-15" x="74.11" y="77.14" width="27.79" height="13.64"/><path class="cls-1" d="M101.79,77.25V90.68H74.21V77.25h27.58M102,77H74V90.89h28V77Z"/><rect class="cls-16" x="225.23" y="77.27" width="133.54" height="13.39"/><path class="cls-1" d="M358.54,77.5V90.43H225.46V77.5H358.54M359,77H225V90.89H359V77Z"/><rect class="cls-17" x="359.1" y="77.14" width="152.79" height="13.64"/><path class="cls-1" d="M511.79,77.24V90.68H359.21V77.24H511.79M512,77H359V90.89H512V77Z"/><rect class="cls-18" x="101.11" y="77.14" width="27.79" height="13.64"/><path class="cls-1" d="M128.79,77.25V90.68H101.21V77.25h27.58M129,77H101V90.89h28V77Z"/><rect class="cls-19" x="128.2" y="77.23" width="96.61" height="13.46"/><path class="cls-1" d="M224.61,77.43V90.5H128.39V77.43h96.22M225,77H128V90.89h97V77Z"/><rect class="cls-20" x="62.1" y="59.21" width="26.79" height="13.64"/><path class="cls-1" d="M88.79,59.32V72.76H62.21V59.32H88.79m.21-.21H62V73H89V59.11Z"/><rect class="cls-21" x="35.1" y="59.21" width="26.79" height="13.64"/><path class="cls-1" d="M61.79,59.32V72.76H35.21V59.32H61.79m.21-.21H35V73H62V59.11Z"/><rect class="cls-22" x="89.1" y="59.21" width="26.79" height="13.64"/><path class="cls-1" d="M115.79,59.32V72.76H89.21V59.32h26.58m.21-.21H89V73h27V59.11Z"/><rect class="cls-23" x="114.1" y="59.21" width="26.79" height="13.64"/><path class="cls-1" d="M140.79,59.32V72.76H114.21V59.32h26.58m.21-.21H114V73h27V59.11Z"/><rect class="cls-24" x="132.17" y="59.28" width="69.67" height="13.52"/><path class="cls-1" d="M201.67,59.44V72.63H132.33V59.44h69.34m.33-.33H132V73h70V59.11Z"/><rect class="cls-25" x="201.16" y="59.27" width="60.69" height="13.54"/><path class="cls-1" d="M261.69,59.42V72.65H201.31V59.42h60.38m.31-.31H201V73h61V59.11Z"/><rect class="cls-26" x="262.16" y="59.27" width="60.69" height="13.54"/><path class="cls-1" d="M322.69,59.42V72.65H262.31V59.42h60.38m.31-.31H262V73h61V59.11Z"/><rect class="cls-27" x="323.16" y="59.27" width="188.68" height="13.54"/><path class="cls-1" d="M511.68,59.43V72.65H323.32V59.43H511.68m.32-.32H323V73H512V59.11Z"/><rect class="cls-28" x="34.09" y="42.09" width="18.83" height="13.68"/><path class="cls-1" d="M52.83,42.17V55.68H34.17V42.17H52.83M53,42H34V55.85H53V42Z"/><rect class="cls-29" x="53.26" y="42.26" width="166.48" height="13.34"/><path class="cls-1" d="M219.48,42.52V55.34h-166V42.52h166M220,42H53V55.85H220V42Z"/><rect class="cls-30" x="219.18" y="42.18" width="83.63" height="13.49"/><path class="cls-1" d="M302.63,42.37V55.49H219.37V42.37h83.26M303,42H219V55.85h84V42Z"/><rect class="cls-31" x="302.18" y="42.18" width="209.63" height="13.49"/><path class="cls-1" d="M511.63,42.37V55.49H302.37V42.37H511.63M512,42H302V55.85H512V42Z"/><path class="cls-1" d="M9.57,11.6a12.81,12.81,0,0,1,2-.15,3.31,3.31,0,0,1,2.26.67,2.15,2.15,0,0,1,.71,1.69,2.38,2.38,0,0,1-.62,1.73,3.34,3.34,0,0,1-2.47.89,3.58,3.58,0,0,1-.84-.08v3.24h-1Zm1,3.9a3.43,3.43,0,0,0,.86.09c1.26,0,2-.62,2-1.73s-.76-1.58-1.91-1.58a4.32,4.32,0,0,0-1,.08Z"/><path class="cls-1" d="M15.81,18.32a3.72,3.72,0,0,0,1.88.53c1.06,0,1.69-.57,1.69-1.38s-.44-1.19-1.53-1.61c-1.32-.47-2.13-1.15-2.13-2.29a2.32,2.32,0,0,1,2.61-2.19,3.73,3.73,0,0,1,1.79.39l-.29.85a3.24,3.24,0,0,0-1.53-.38c-1.11,0-1.53.66-1.53,1.21,0,.76.5,1.13,1.61,1.56,1.37.53,2.06,1.19,2.06,2.37s-.92,2.33-2.83,2.33a4.25,4.25,0,0,1-2.06-.51Z"/><path class="cls-1" d="M21.87,11.51h1.05v7.21h3.45v.87h-4.5Z"/><path d="M146.85,9.28a6,6,0,0,1,3,.75,5.62,5.62,0,0,1,2.93,5,5.85,5.85,0,0,1-1.09,3.48,5.62,5.62,0,0,1-2.85,2.12.29.29,0,0,1-.29-.05.3.3,0,0,1-.11-.23v-2a1.34,1.34,0,0,0-.39-1.08c.34-.05.6-.08.79-.12a3.73,3.73,0,0,0,.71-.21,1.62,1.62,0,0,0,.64-.42,2.15,2.15,0,0,0,.39-.73,3.36,3.36,0,0,0,.16-1.12,1.69,1.69,0,0,0-.14-.73,2.75,2.75,0,0,0-.47-.63,2.14,2.14,0,0,0-.05-1.59,1,1,0,0,0-.63.08,3.8,3.8,0,0,0-.7.34l-.28.21a5.36,5.36,0,0,0-1.49-.21,5.12,5.12,0,0,0-1.47.21,2.13,2.13,0,0,0-.32-.22,4.51,4.51,0,0,0-.65-.31,1,1,0,0,0-.64-.1,2.06,2.06,0,0,0-.07,1.59,1.94,1.94,0,0,0-.54,1.36,3.36,3.36,0,0,0,.16,1.12,2.35,2.35,0,0,0,.38.73,1.5,1.5,0,0,0,.61.42,3.7,3.7,0,0,0,.69.23,7.31,7.31,0,0,0,.78.1,1.25,1.25,0,0,0-.37.8,2.9,2.9,0,0,1-.48.14,1.26,1.26,0,0,1-1.23-.63,1.14,1.14,0,0,0-.37-.41A.91.91,0,0,0,143,17l-.14,0c-.35,0-.36.11,0,.35a1.12,1.12,0,0,1,.33.3,1.83,1.83,0,0,1,.23.38l.1.19a1,1,0,0,0,.32.46,1.08,1.08,0,0,0,.52.24,3.5,3.5,0,0,0,.54.05,2.42,2.42,0,0,0,.42,0l.16,0c0,.19,0,.47,0,.84s0,.57,0,.59a.3.3,0,0,1-.11.23.29.29,0,0,1-.29.05,5.61,5.61,0,0,1-2.88-2.12A5.8,5.8,0,0,1,141.1,15a5.52,5.52,0,0,1,1.66-4.08A5.58,5.58,0,0,1,146.85,9.28Zm-3.73,7.9a.12.12,0,0,1,.12,0s.06.07,0,.1,0,.05-.09,0S143.1,17.21,143.12,17.18Zm.26.19s.07,0,.12,0,.05.08,0,.12-.07,0-.12,0S143.35,17.4,143.38,17.37Zm.23.3c0-.05.1,0,.14,0s.05.11,0,.14-.09,0-.13-.06S143.58,17.69,143.61,17.67Zm.28.33c0-.05.08,0,.14,0s.08.12.05.17-.1,0-.16,0S143.85,18,143.89,18Zm.37.3c0-.06.07-.08.15,0s.11,0,.09.11-.06.08-.14.05S144.23,18.37,144.26,18.3Zm.74.1q0,.09-.12.09c-.1,0-.14,0-.14-.09s0-.07.11-.07S145,18.33,145,18.4Zm.3-.14c.08,0,.12,0,.13.07s0,.08-.11.11-.12,0-.13-.07S145.22,18.27,145.3,18.26Z"/><path class="cls-1" d="M15.44,51.13l-1,3.18H13L16.47,44.2h1.58L21.5,54.31H20.1L19,51.13Zm3.31-1-1-2.91c-.22-.66-.37-1.26-.52-1.85h0c-.15.6-.32,1.22-.51,1.83l-1,2.93Z"/><path class="cls-1" d="M13.8,61.33a12.66,12.66,0,0,1,2.39-.21,4.17,4.17,0,0,1,2.77.74,2.1,2.1,0,0,1,.84,1.78,2.39,2.39,0,0,1-1.71,2.22v0a2.62,2.62,0,0,1,2.09,2.54,2.71,2.71,0,0,1-.86,2,5,5,0,0,1-3.49,1,15.41,15.41,0,0,1-2-.12Zm1.31,4.14h1.18c1.38,0,2.19-.72,2.19-1.69,0-1.19-.9-1.65-2.22-1.65a5.2,5.2,0,0,0-1.15.09Zm0,4.85a7.57,7.57,0,0,0,1.09.06c1.35,0,2.6-.5,2.6-2s-1.19-2-2.61-2H15.11Z"/><path class="cls-1" d="M20.87,88a6.48,6.48,0,0,1-2.67.48,4.73,4.73,0,0,1-5-5.12A5,5,0,0,1,18.48,78a5.4,5.4,0,0,1,2.4.45l-.31,1.07a4.77,4.77,0,0,0-2-.42c-2.37,0-4,1.51-4,4.17,0,2.47,1.43,4.06,3.89,4.06a5.18,5.18,0,0,0,2.13-.42Z"/><path class="cls-1" d="M13.8,95.33a18.76,18.76,0,0,1,2.78-.21,5.8,5.8,0,0,1,4.09,1.26A4.67,4.67,0,0,1,22.1,100a5.33,5.33,0,0,1-1.46,3.93,6.19,6.19,0,0,1-4.47,1.46,22.32,22.32,0,0,1-2.37-.12Zm1.31,8.94a8.17,8.17,0,0,0,1.32.08c2.79,0,4.3-1.56,4.3-4.29,0-2.39-1.33-3.9-4.09-3.9a7.78,7.78,0,0,0-1.53.13Z"/><path class="cls-1" d="M33.33,25.12a9.11,9.11,0,0,1,12.85,0,9.11,9.11,0,0,1,0,12.85,9.09,9.09,0,0,1-12.85,0,9.09,9.09,0,0,1,0-12.85Zm1.24,11.61a7.33,7.33,0,0,0,12.51-5.18,7.33,7.33,0,0,0-12.51-5.18,7.34,7.34,0,0,0,0,10.36ZM42,35.06l-3.11-2.27a.44.44,0,0,1-.18-.36v-6a.39.39,0,0,1,.44-.44h1.17a.39.39,0,0,1,.44.44v5.2l2.45,1.76a.4.4,0,0,1,.07.62l-.66,1A.39.39,0,0,1,42,35.06Z"/><path class="cls-1" d="M56.84,31.43,51,37.29V25.57Z"/><path class="cls-32" d="M140.66,25.9a8.31,8.31,0,0,1,1.5-.12,2.5,2.5,0,0,1,1.7.5,1.62,1.62,0,0,1,.54,1.27,1.83,1.83,0,0,1-.47,1.3,2.54,2.54,0,0,1-1.86.67,2.45,2.45,0,0,1-.63-.06v2.43h-.78Zm.78,2.92a2.39,2.39,0,0,0,.65.07c.95,0,1.52-.46,1.52-1.3s-.57-1.19-1.43-1.19a3.84,3.84,0,0,0-.74.06Z"/><path class="cls-32" d="M145.45,25.91a7.35,7.35,0,0,1,1.5-.13,2.5,2.5,0,0,1,1.76.49,1.54,1.54,0,0,1,.47,1.16A1.6,1.6,0,0,1,148,29v0a1.51,1.51,0,0,1,.89,1.23,9.36,9.36,0,0,0,.47,1.66h-.81a8.3,8.3,0,0,1-.41-1.45c-.18-.83-.5-1.15-1.21-1.18h-.74v2.63h-.78Zm.78,2.76h.8c.84,0,1.37-.46,1.37-1.15s-.57-1.13-1.4-1.14a3,3,0,0,0-.77.08Z"/><path class="cls-32" d="M152.48,27.54l.85,2.44a10.12,10.12,0,0,1,.35,1.12h0c.1-.36.22-.72.37-1.12l.84-2.44h.83L154,31.89h-.75l-1.66-4.35Z"/><path class="cls-32" d="M158,26.78h0l-1,.55-.15-.6,1.28-.69h.67v5.85H158Z"/><path class="cls-32" d="M164.74,25.64a6,6,0,0,0-1.13,3.69A6,6,0,0,0,164.74,33h-.62a5.8,5.8,0,0,1-1.18-3.65,6,6,0,0,1,1.18-3.69Z"/><path class="cls-32" d="M165.66,31.89V28.14h-.61v-.6h.61V27.3a1.75,1.75,0,0,1,1.9-1.9,2.21,2.21,0,0,1,1.11.29l-.23.6a1.71,1.71,0,0,0-.92-.25c-.83,0-1.08.59-1.08,1.28v.22H169v4.35h-.78V28.14h-1.75v3.75Z"/><path class="cls-32" d="M170.66,27.54l.62.93c.16.24.29.47.44.71h0c.14-.26.28-.48.43-.72l.61-.92h.85l-1.48,2.1,1.53,2.25h-.9l-.64-1c-.17-.25-.32-.49-.47-.75h0c-.14.26-.29.49-.45.75l-.64,1h-.87l1.55-2.22-1.48-2.13Z"/><path class="cls-32" d="M179.71,31.89l-.77-1.34c-.32-.51-.52-.84-.71-1.2h0c-.18.36-.35.68-.66,1.21l-.73,1.33h-.9l1.85-3.07-1.78-3h.91l.8,1.43c.23.39.4.7.56,1h0a10.33,10.33,0,0,1,.55-1l.82-1.43h.9l-1.84,3,1.89,3.11Z"/><path class="cls-32" d="M181.7,33a6.08,6.08,0,0,0,1.14-3.68,6,6,0,0,0-1.14-3.66h.61a5.74,5.74,0,0,1,1.18,3.67A5.81,5.81,0,0,1,182.31,33Z"/><path d="M256,117.78h0l-1,.55-.15-.6,1.28-.69h.67v5.85H256Z"/><path d="M238.66,116.9a8.31,8.31,0,0,1,1.5-.12,2.5,2.5,0,0,1,1.7.5,1.62,1.62,0,0,1,.54,1.27,1.83,1.83,0,0,1-.47,1.3,2.54,2.54,0,0,1-1.86.67,2.45,2.45,0,0,1-.63-.06v2.43h-.78Zm.78,2.92a2.39,2.39,0,0,0,.65.07c.95,0,1.52-.46,1.52-1.3s-.57-1.19-1.43-1.19a3.84,3.84,0,0,0-.74.06Z"/><path d="M243.45,116.91a7.35,7.35,0,0,1,1.5-.13,2.5,2.5,0,0,1,1.76.49,1.54,1.54,0,0,1,.47,1.16A1.6,1.6,0,0,1,246,120v0a1.51,1.51,0,0,1,.89,1.23,9.36,9.36,0,0,0,.47,1.66h-.81a8.3,8.3,0,0,1-.41-1.45c-.18-.83-.5-1.15-1.21-1.18h-.74v2.63h-.78Zm.78,2.76h.8c.84,0,1.37-.46,1.37-1.15s-.57-1.13-1.4-1.14a3,3,0,0,0-.77.08Z"/><path d="M250.48,118.54l.85,2.44a10.12,10.12,0,0,1,.35,1.12h0c.1-.36.22-.72.37-1.12l.84-2.44h.83L252,122.89h-.75l-1.66-4.35Z"/><path d="M261.46,120.86a1.4,1.4,0,0,0,1.5,1.51,3,3,0,0,0,1.21-.22l.13.56a3.48,3.48,0,0,1-1.45.27,2,2,0,0,1-2.14-2.19,2.11,2.11,0,0,1,2-2.35,1.85,1.85,0,0,1,1.8,2c0,.16,0,.29,0,.37Zm2.33-.57a1.13,1.13,0,0,0-1.1-1.29,1.33,1.33,0,0,0-1.22,1.29Z"/><path d="M266.41,117.49h-1.84v-.67h4.49v.67h-1.85v5.4h-.8Z"/><path d="M269.74,116.82h.78v5.42h2.59v.65h-3.37Z"/><path d="M274,116.91a10.3,10.3,0,0,1,1.67-.13,3.47,3.47,0,0,1,2.46.76,2.77,2.77,0,0,1,.85,2.17,3.17,3.17,0,0,1-.87,2.36,3.72,3.72,0,0,1-2.68.88,11.55,11.55,0,0,1-1.43-.08Zm.79,5.36a4.35,4.35,0,0,0,.79,0,2.33,2.33,0,0,0,2.58-2.58,2.16,2.16,0,0,0-2.45-2.34,4.77,4.77,0,0,0-.92.08Z"/><path d="M282.26,118.1v2.12h2v.54h-2v2.13h-.57v-2.13h-2v-.54h2V118.1Z"/><path d="M286.78,117.78h0l-1,.55-.16-.6,1.28-.69h.68v5.85h-.77Z"/><text class="cls-33" transform="translate(141.88 123.33)">Lag<tspan class="cls-34" x="13.62" y="0"> </tspan><tspan class="cls-35" x="15.16" y="0">T</tspan><tspan class="cls-36" x="19.52" y="0">ime</tspan></text><text class="cls-33" transform="translate(202.88 123.33)"><tspan class="cls-37">C</tspan><tspan x="5.16" y="0">ascade</tspan></text></svg>